<mxfile host="app.diagrams.net" agent="Mozilla/5.0 (Windows NT 10.0; WOW64) AppleWebKit/537.36 (KHTML, like Gecko) Chrome/101.0.4951.64 Safari/537.36" version="26.2.8">
  <diagram name="第 1 页" id="-aqNqgKqMlsmf_ahi2sg">
    <mxGraphModel dx="1492" dy="676" grid="1" gridSize="10" guides="1" tooltips="1" connect="1" arrows="1" fold="1" page="1" pageScale="1" pageWidth="827" pageHeight="1169" math="0" shadow="0">
      <root>
        <mxCell id="0" />
        <mxCell id="1" parent="0" />
        <mxCell id="ePlIBTF9PAfNOliPOYSr-1" value="" style="ellipse;whiteSpace=wrap;html=1;" vertex="1" parent="1">
          <mxGeometry x="134" y="135" width="560" height="420" as="geometry" />
        </mxCell>
        <mxCell id="ePlIBTF9PAfNOliPOYSr-4" value="收藏" style="text;html=1;align=center;verticalAlign=middle;resizable=0;points=[];autosize=1;strokeColor=none;fillColor=none;" vertex="1" parent="1">
          <mxGeometry x="270" y="168" width="50" height="30" as="geometry" />
        </mxCell>
        <mxCell id="ePlIBTF9PAfNOliPOYSr-7" value="模型" style="ellipse;whiteSpace=wrap;html=1;" vertex="1" parent="1">
          <mxGeometry x="430" y="180" width="120" height="80" as="geometry" />
        </mxCell>
        <mxCell id="ePlIBTF9PAfNOliPOYSr-12" value="" style="group" vertex="1" connectable="0" parent="1">
          <mxGeometry x="414" y="310" width="220" height="150" as="geometry" />
        </mxCell>
        <mxCell id="ePlIBTF9PAfNOliPOYSr-8" value="" style="ellipse;whiteSpace=wrap;html=1;" vertex="1" parent="ePlIBTF9PAfNOliPOYSr-12">
          <mxGeometry width="220" height="150" as="geometry" />
        </mxCell>
        <mxCell id="ePlIBTF9PAfNOliPOYSr-9" value="Question" style="text;html=1;align=center;verticalAlign=middle;resizable=0;points=[];autosize=1;strokeColor=none;fillColor=none;" vertex="1" parent="ePlIBTF9PAfNOliPOYSr-12">
          <mxGeometry x="30" y="30" width="70" height="30" as="geometry" />
        </mxCell>
        <mxCell id="ePlIBTF9PAfNOliPOYSr-10" value="模型" style="ellipse;whiteSpace=wrap;html=1;" vertex="1" parent="ePlIBTF9PAfNOliPOYSr-12">
          <mxGeometry x="60" y="80" width="80" height="60" as="geometry" />
        </mxCell>
        <mxCell id="ePlIBTF9PAfNOliPOYSr-11" value="模型" style="ellipse;whiteSpace=wrap;html=1;" vertex="1" parent="ePlIBTF9PAfNOliPOYSr-12">
          <mxGeometry x="120" y="40" width="80" height="60" as="geometry" />
        </mxCell>
        <mxCell id="ePlIBTF9PAfNOliPOYSr-13" value="" style="group" vertex="1" connectable="0" parent="1">
          <mxGeometry x="170" y="260" width="240" height="200" as="geometry" />
        </mxCell>
        <mxCell id="ePlIBTF9PAfNOliPOYSr-5" value="" style="ellipse;whiteSpace=wrap;html=1;" vertex="1" parent="ePlIBTF9PAfNOliPOYSr-13">
          <mxGeometry y="-30" width="240" height="230" as="geometry" />
        </mxCell>
        <mxCell id="ePlIBTF9PAfNOliPOYSr-6" value="仪表盘" style="text;html=1;align=center;verticalAlign=middle;resizable=0;points=[];autosize=1;strokeColor=none;fillColor=none;" vertex="1" parent="ePlIBTF9PAfNOliPOYSr-13">
          <mxGeometry x="46.31578947368421" y="23.529411764705884" width="60" height="30" as="geometry" />
        </mxCell>
        <mxCell id="ePlIBTF9PAfNOliPOYSr-14" value="Question" style="ellipse;whiteSpace=wrap;html=1;" vertex="1" parent="ePlIBTF9PAfNOliPOYSr-13">
          <mxGeometry x="40" y="90" width="120" height="80" as="geometry" />
        </mxCell>
        <mxCell id="ePlIBTF9PAfNOliPOYSr-15" value="模型" style="ellipse;whiteSpace=wrap;html=1;" vertex="1" parent="ePlIBTF9PAfNOliPOYSr-13">
          <mxGeometry x="140" y="30" width="80" height="60" as="geometry" />
        </mxCell>
      </root>
    </mxGraphModel>
  </diagram>
</mxfile>
